<svg width="25" height="24" viewBox="0 0 25 24" fill="none" xmlns="http://www.w3.org/2000/svg">
<g clip-path="url(#clip0_83_145)">
<path d="M10.5 16H14.5C15.05 16 15.5 15.55 15.5 15V10H17.09C17.98 10 18.43 8.92 17.8 8.29L13.21 3.7C12.82 3.31 12.19 3.31 11.8 3.7L7.21 8.29C6.58 8.92 7.02 10 7.91 10H9.5V15C9.5 15.55 9.95 16 10.5 16ZM6.5 18H18.5C19.05 18 19.5 18.45 19.5 19C19.5 19.55 19.05 20 18.5 20H6.5C5.95 20 5.5 19.55 5.5 19C5.5 18.45 5.95 18 6.5 18Z" fill="white"/>
</g>
<defs>
<clipPath id="clip0_83_145">
<rect width="24" height="24" fill="white" transform="translate(0.5)"/>
</clipPath>
</defs>
</svg>
